<svg xmlns="http://www.w3.org/2000/svg" xmlns:xlink="http://www.w3.org/1999/xlink" viewBox="0 0 1500 1500"><defs><style>.cls-1{fill:url(#linear-gradient);}.cls-2{fill:#136b82;}.cls-3{font-size:120.13px;fill:#007086;font-family:Galvji;}.cls-4{fill:url(#linear-gradient-2);}</style><linearGradient id="linear-gradient" x1="684.46" y1="812.67" x2="1186.5" y2="812.67" gradientUnits="userSpaceOnUse"><stop offset="0" stop-color="#ff8300"/><stop offset="0.06" stop-color="#dd7f13"/><stop offset="0.14" stop-color="#ae7b2c"/><stop offset="0.24" stop-color="#857743"/><stop offset="0.33" stop-color="#627356"/><stop offset="0.44" stop-color="#457066"/><stop offset="0.55" stop-color="#2f6e72"/><stop offset="0.67" stop-color="#206c7a"/><stop offset="0.8" stop-color="#176b7f"/><stop offset="1" stop-color="#146b81"/></linearGradient><linearGradient id="linear-gradient-2" x1="459.12" y1="688.36" x2="887.87" y2="688.36" gradientUnits="userSpaceOnUse"><stop offset="0" stop-color="#146b81"/><stop offset="0.2" stop-color="#176b7f"/><stop offset="0.33" stop-color="#206c7a"/><stop offset="0.45" stop-color="#2f6e72"/><stop offset="0.56" stop-color="#457066"/><stop offset="0.67" stop-color="#627356"/><stop offset="0.76" stop-color="#857743"/><stop offset="0.86" stop-color="#ae7b2c"/><stop offset="0.94" stop-color="#dd7f13"/><stop offset="1" stop-color="#ff8300"/></linearGradient></defs><g id="Layer_3" data-name="Layer 3"><path class="cls-1" d="M906.52,1313V680h-221a1.06,1.06,0,0,1-1.06-1.06v-1.45a90.19,90.19,0,0,1,90.18-90.19H906.52V514.88q0-104.76,48.84-153.65t157.88-48.89a575.18,575.18,0,0,1,73.26,4.44v92.07q-20.85-2.55-60.76-2.55-64.34,0-91.14,25.08t-26.8,92.4v63.48h159V680h-159v633Z"/></g><g id="Layer_5" data-name="Layer 5"><path class="cls-2" d="M439.28,659.45a1.63,1.63,0,0,1-.17-.2.62.62,0,0,1-.1-.35V97.14a.62.62,0,0,0-.62-.62H337.77a.62.62,0,0,0-.62.62v931a.62.62,0,0,0,.62.62H438.39a.62.62,0,0,0,.62-.62V774.7a.62.62,0,0,1,.18-.44l.21-.21C437.77,736,438.86,698,439.28,659.45Z"/></g><g id="Layer_1" data-name="Layer 1"><text class="cls-3" transform="translate(312.65 1148.98)">k. fleming </text><text class="cls-3" transform="translate(429.24 1288.16)">designs</text></g><g id="Layer_6" data-name="Layer 6"><path class="cls-4" d="M887.74,1027.81,621.41,675.06l-21.34-31.61a.63.63,0,0,1,0-.77L871.21,347.91H750.89l-287,312-3.67,3.92a1.67,1.67,0,0,0-.45,1.1c-.45,36.72-1.36,73,.19,109.17l64.64-64.63a.61.61,0,0,1,.93.07L765,1027.81a2.48,2.48,0,0,0,2,1H887.25A.62.62,0,0,0,887.74,1027.81Z"/></g></svg>